<svg id="Слой_1" xmlns="http://www.w3.org/2000/svg" viewBox="150 300 300 300"><style>.st0{fill:#fff;stroke:#fff;stroke-width:.2835;stroke-miterlimit:10}</style><path class="st0" d="M282.7 437.3c-4.4-5.3-4.7-13.1-4.1-19.6.7-7.3 3.1-13.5 6.8-19.8 1.6-2.8 2.9-5.6 3.5-8.8.1-.6.1-1.7.6-2.3 1.2-1.5 3.3.4 4.3 1.3 4.7 4 7.2 10.7 9.2 16.3 2.8 8.2 4.4 17.7 2.8 26.4-.1.7 2.1-1.1 2.2-1.8 1.1-8.9-.5-19.3-4.1-27.4-3.4-7.5-6.5-13-11.2-16.2-1.4-.9-3-1.5-4.4 0-1.6 1.6-1.2 4.8-2 6.8-1.5 4-3.7 7.8-5.4 11.7-1.5 3.6-3.3 7.4-3.8 11.3-1.1 7.5-1.4 16.5 4.9 22.8.4.6 1.2-.1.7-.7z"/><path class="st0" d="M299.5 443.6c0-2.1-1.5-3.1-.6-5.3.8-2.2 3.2-3.5 4.9-4.8 3.8-2.7 7.4-5.6 10.6-9 4.8-5.2 8.1-11.3 13.4-16.1 5-4.4 11.7-8.7 18.6-8.8 1.1 0 3.2-.1 4 .8 1.3 1.4-1.4 3.4-2.3 4.5-1.1 1.4-2 3-2.8 4.6-3.9 8.1-7.7 17-13.3 24-3.5 4.4-8.3 9.6-14 10.7-3.2.6-7.1-.6-10.4-.7-2.9-.2-5.9.1-8.6-.7-.7-.2-.8 1.2-.1 1.3 2.9.3 5.8.4 8.7.6 3.3.2 6.7 1.3 10 .8 8.1-1.2 11.8-5.3 15.3-9.1 6.8-7.6 9.1-17.3 13.6-26.4 1-2 2-3.7 3.5-5.3 2.3-2.6 3-5.2-1.1-6-4.9-.9-10.1 1.1-14.3 3.4-6.6 3.7-11.8 9.2-16.1 15.4-4.4 6.3-9.7 10.5-15.8 14.9-1.9 1.4-4.6 2.8-5.8 7.3-.5 1.7 1.5 1.5 1.5 3.8-.1.9 1.1.9 1.1.1zm-21.8-23.9c-12-6.5-9.7-24-16-34.3-2.9-4.7-7.5-8.4-12.4-10.6-3.3-1.4-11.4-4.4-12.1-.1 0 .2 0 .9 1.1 2.2 8.3 9.6 5.5 22.9 6 34 .4 8.2 2 15.6 10 21.2.6.4 4.8 1.7 4.2 1.3-7.2-5.1-11.1-13.1-11.9-21.9-.8-8.3.4-16.8-1.6-25.1-.7-3.1-2-6.1-4.1-8.5-.2-.2-1-1.3-1.1-1.4-.8-1.3.4-2.4 2.5-2.1 1.4.1 2.6.6 3.9 1.1 2.1.8 4.1 1.7 6 2.7 4 2.3 7.3 5.4 9.4 9.5 1.9 3.8 2.8 8.1 3.7 12.3 1.6 7.5 3.6 18.1 11.9 21.7.7.3 1.6-1.4 1-1.8l-.5-.2z"/><path class="st0" d="M299.5 394c1.8-7.6 5.7-14.8 8.7-22 1.3-3 1.9-6.2 3-9.2.5-1.4 1.2-1.8 2.2-1.5.7.2 1.3.9 1.9 1.4 1.2 1.1 2.3 2.3 3.2 3.7 7.6 12.7 8.3 28.4 7 42.7-.1.7 1.1.7 1.1 0 .8-9 1-18-.5-27-1-5.7-3.6-14.8-8.2-19.7-1.2-1.2-3.9-4.4-6.3-3.1-.7.4-1.5 1-1.7 1.7-.9 2.3-1.7 6.5-2.7 8.7-3.6 8.3-6.6 13.9-8.7 22.7-.2.9.8 2.3 1 1.6zm44.8 5.4c5-11 13.6-20.2 23.6-26.9 3.9-2.6 8.4-5.6 12.9-6.9 1.9-.5 4-.2 4.1 2.2 0 2.1-1.5 4.6-2.2 6.5-2.9 7.7-3 15.9-6.2 23.4-3.4 7.9-8.5 15.3-14.3 21.6-8.4 9-18.3 16.8-29.7 21.6-.7.3 6.3-.2 6.9-.5 10.8-4.5 15.1-9.1 23.2-17.5 6.6-6.8 11.6-15.7 15.4-24.5 1.7-3.9 2.4-8.2 3.3-12.4 1.1-5.1 2.6-9.9 4.4-14.8 1-2.8 2.1-6-1.3-7-3.7-1.2-9.3 2.6-12.3 4.3-12.2 7-23 17.4-28.8 30.3-.3.7.7 1.3 1 .6z"/><path class="st0" d="M380.9 387.6c1.9-3 5.3-4.7 8.4-6.2 2.4-1.1 5-2.3 7.5-3.3 1.2-.5 2-.6 2.2.5.2 1.3-.5 3.4-.9 4.6-1.1 3.1-2.3 6.2-3.5 9.3-5.7 14.9-14.7 33.5-29.4 43.3-.6.4 3.8.1 4.4-.3 15-12.7 19-23.8 24.6-37.3 1.4-3.3 2.6-6.6 3.9-9.9 1.1-2.8 2.5-6.5 2.9-9.5.5-3.8-3.5-3.7-6.1-2.3-2.7 1.4-4.8 2.6-7.5 4-2.8 1.4-5.3 2.8-6.9 5.6-.4.7 0 2.1.4 1.5zm-51.3 63.1c28.2 1.5 45.9-4.1 54.9-7.8 7.7-3.2 15.2-6.5 20.1-13.3.4-.6-.8-1.5-1.3-1-5.8 6.3-13.6 10.9-21.5 13.7-19.6 6.9-42.7 7.6-52.1 8.2-.6-.1-.8.2-.1.2zm-9.4-83.1c2.1-5.8 6.2-11.8 10.5-16.2 2.1-2.1 4.9-3.4 7.1-5.4 1.3-1.2 2.8-2.9 4.6-2.2 1.8.7 2.1 3.7 2.5 5.4 2 9 0 19-1.7 28-1.6 8.3-3.7 16.6-7 24.4-.3.7 2-.6 2.3-1.2 3-7.2 5.1-13.2 6.7-20.9 1.7-8 2.7-17 2.3-25.2-.1-3.4-1.2-7.3-2.2-10.5-.5-1.6-1.9-2.9-3.7-2.4-2.4.6-4.2 3.2-6 4.7-2.2 1.8-4.4 3.6-6.5 5.6-4.8 4.7-7.6 9.4-9.6 15-.4.6.5 1.6.7.9zm-18.7 17.3c-2.1-10.2-3.7-20.4-7.8-30-3.5-8.3-10.6-20.2-17.3-20.5-.3 0-.4 0-.7.1-4.4 1.8-5 7.2-6.1 11.2-1.2 4.3-1.6 8.2-2.6 12.5-1.9 8.3-2.5 15.9-2.2 24.4 0 .7 1.2 1.4 1.2.7-.3-9 .4-17.7 2.5-26.4 1.1-4.5 2.3-8.9 3.6-13.3.6-2.3.9-4.1 2.4-6 1.8-2.4 5.3-.3 6 .4 6.2 5.9 9.8 12.7 13.2 21.4 3.3 8.2 4.8 17.2 6.6 25.7.3.8 1.4.5 1.2-.2z"/><path class="st0" d="M280.5 407.6c-4.1-8.8-8.1-19-14.8-26.3-3-3.3-6.5-5.9-10.4-8.1-3.7-2.1-7.1-3.2-12-4.5-4.1-1.1-8.1-2.8-12.1-4.1-2.6-.9-6.5-3-9.2-2.6-2.6.4-1.3 4.8-.7 6.5 1.4 4.6 3 9.8 5.3 14.1 4.4 8.4 10.7 14.6 17.8 20.7.6.5 1.7-1 1.1-1.5-5.4-4.6-10.8-9.2-14.9-15.1-2.7-3.9-4.7-8.1-6.3-12.6-.6-1.8-1.3-3.7-1.9-5.5-.3-1-.7-2-.7-3 0-1.6.4-1.8 1.9-1.6 2.9.4 5.6 1.7 8.4 2.5 3.5 1.1 7 2.2 10.6 3.2 8.6 2.4 15.5 6.4 21.6 12.9 6.9 7.3 11.1 16.6 15.3 25.5.3.7 1.3.1 1-.5z"/><path class="st0" d="M236.9 394.6c-8.1-5.6-14.1-9.4-23.2-13.4-3.1-1.4-6.2-2.5-9.5-3.3-2.7-.7-5.8-1.8-8.6-1.4-6.8.9-2.6 12.4-1.3 15.9 2.7 7.3 6.7 14.9 12.1 20.4 6.5 6.7 13.8 12.9 22.3 16.9.7.3 2.7-1.1 2-1.4-6.8-3.2-13-8.1-18.5-13.2-5.3-4.9-9.7-10.1-13.1-16.4-1.8-3.2-10-20.2-3.2-21.1 2.8-.4 6.2.8 8.9 1.6 3.1.8 6.1 1.9 9 3.3 8.8 4 16.9 9.3 24.9 14.7.6.4.1-1.3-.6-1.8l-1.2-.8z"/><path class="st0" d="M197.3 382.9c1.6 14.7 14.2 27.4 33.4 35.9 2.4 1.1-.3-.8-1.1-1.4-12.2-9.6-30.6-18.9-31.2-34.8-.1-2.4-1-2.5-1.1.3zm84.2 53.6c-6.9.4-13.9-.4-20.4-2.5-6.7-2.2-13.1-5.5-20.2-6.5-5.2-.7-10.6-.1-14.9 3-1.8 1.3-6.1 4.2-3.7 6.6 1.4 1.4 7.1 2.2 11.2 2.9 3.4.6 7.3 1.1 10.7 1.3 8.2.4 16.2 1.4 24.3 2.1 7.1.6 11.5.9 17.2.5 4.1-.3 8.7-.7 12.3-2.7.6-.4-3.4-.7-4.1-.4-7.5 2.6-14.1 2.3-21.7 1.3-8.1-1.1-12.3-.8-20.4-1.5-2.4-.2-8.3-.3-10.7-.6-5.5-.7-8.4-1.6-12.1-2.8-1.5-.5-2.7-.6-4.2-1.2-.4-.1-1.6-.5-1.1-1.3.3-.6.8-1.3 1.4-1.9 4.7-4.4 11.1-5 17.2-3.9 7.1 1.3 13.5 4.7 20.4 6.8 6 1.8 14.4 3.6 20.7 3.2.7 0-1.4-1.8-2.2-1.8l.3-.6z"/><path class="st0" d="M222.8 433.2c-10.6 9.5 15.7 16.5 20.6 18.7 8 3.5 16 6.5 23.9 6.6 4.7.1 12 0 17.3-2.2 4.3-1.8 7.2-3.5 11-7.2 1.4-1.4 2.9-3.5 3.9-5.2.4-.6-.7-2.1-1.1-1.5-1.1 1.8-2.9 4.1-4.4 5.5-3.6 3.3-7.1 5.6-11.9 7-6.2 1.8-13 1.5-19.3.8-9.5-1-17.7-6.1-27.2-9.3-4.5-1.5-16.4-6.3-11.8-12.4.2-.5-.5-1.3-1-.8zm76.1 22.6c5.6 8.7 17.5 14.9 28.1 14.9 6.5 0 7.5-3.4 7.4-7.2-.2-6.2-3.1-11.8-7.4-15.7-.5-.5-1.4.3-.8.8 4.1 3.8 7.4 9.5 6.9 15.4-.4 4.4-4.5 5.8-8.5 5.5-9.6-.7-18.6-6.1-25.7-13.7-.5-.5-.4-.6 0 0z"/><path class="st0" d="M290.6 451.4c.7 5.9 2.6 11.1 6.2 15.9 4.2 5.6 10.7 9.1 17.4 10.6 5.6 1.3 13 3.2 18.3.4 3.4-1.8 4.3-3.3 5.3-7 .8-3.3 1.3-8 .3-11.3-.8-3-3.5-5.5-5.7-7.6-3.5-3.4-7.4-6.4-11.7-8.7-.7-.3-1.2.6-.6 1 4.3 2.3 8.2 5.3 11.7 8.8 2.6 2.6 5.2 5.2 5.4 9.1.2 4.5-.8 11-4.8 13.6-3.1 2-6 2.4-9.7 2.1-8.1-.7-15.7-3.9-21.7-9.7-5.1-4.9-7.7-12-7.8-18.7 0-.7-2.5.4-2.4 1.2l-.2.3z"/><path class="st0" d="M323.3 479.6c11.3 8.7 25.7 14.6 39.5 15.7 4.2.3 8.7.5 12.8-.2 2.9-.5 9-2.5 7.5-6.5-.3-.7-1.1-.7-1.1 0-.1 3.9-7.3 4.4-10.1 4.6-3.1.3-6.4.3-9.5 0-13.3-1.3-24.1-5.6-34.7-13.8-.6-.4-3.1 0-2.5.4l-1.9-.2z"/><path class="st0" d="M334.3 477.8c7.3 5.3 18.1 10.6 26.9 12 6.9 1.1 13.3 2.8 21.4.3.7-.2.4-2.6-.3-2.2-4.5 2.6-14.7 1.1-21.6 0-8.4-1.4-18.9-5.9-26.4-10.1-.6-.3-.6-.3 0 0z"/><path class="st0" d="M352.7 462.4c7.6 2.6 15.5 6.4 20 13.4 3.1 4.6 5.1 9.3 9.4 13.1.5.5 1.4-.3.8-.8-4.7-4.2-6.7-10.1-10.7-14.9-5-6-11.6-9.1-18.9-11.6-.7-.2-2 .3-1.3.5l.7.3zm-67.4 11.2c-6.8 8.1-7.4 21.1-.3 26.1.6.4 2.5-1.1 1.9-1.3-5.7-2.5-6.3-11.3-3.8-19.5.2-.6 2.5-5.9 2.2-5.3z"/><path class="st0" d="M285.3 499.9c4.1 3.2 11.8.7 15.9-2.9 4-3.5 7.7-8.9 6.7-15.5-.1-.6-.4-.3-.4.4.4 4.8-3.3 10.1-7 13.4-3.7 3.4-10.9 4.2-15.3 2.6-.5-.2-.6 1.9.1 2z"/><path class="st0" d="M285.9 465.9c-4.4 4.1-8.6 10.8-9.6 16.7-1.1 6.4-.8 16 4.1 20.9 5 4.9 12.6 5.7 18.5 3 5.8-2.7 10.2-7.9 12.8-13.7 1.9-4.4 3.4-11.8.4-16.1-.4-.6-1.4 0-1 .6 2.4 3.4 1.5 8.3.2 12-1.8 5.3-5.4 10.1-10.1 13.2-5.6 3.7-12.4 4.8-18.3.9-6.1-4-6.3-13-5.8-19.5.5-6 5.1-13.2 9.5-17.2.6-.5-.2-1.3-.7-.8zm-51.4 27.6c3.6-.3 7.2.9 10.8 1.2 10 .9 19.1-2.4 26.5-9.1.5-.5-8.8 4.6-9.5 4.9-6.4 2.9-13.1 3.1-18.4 2.3-3.1-.5-6.1-1.4-9.3-1.1-.7.1-.7 1.2 0 1.1l-.1.7z"/><path class="st0" d="M235.2 495.6c3.9 1.6 8 2.9 12.2 3.2 3.9.2 8.3-.3 12.1-1.4 6.9-2.1 13.7-7.9 17.7-13.8.4-.6-.6-1.2-1-.6-3.9 5.8-11 11-17.9 12.6-8.9 2.1-16.3 0-23.5-1.4-.7-.1-.3 1.1.4 1.4zm-.1-3c3-3.7 5.3-8.5 9.3-11.4 4.4-3.2 9.8-5.3 15.1-6.6.7-.2.4-1.3-.3-1.1-5.4 1.3-10.8 3.4-15.3 6.7-4.1 2.9-6.4 7.7-9.5 11.6-.6.6.2 1.4.7.8zm-13.5-54.5c-4.9-.8-9.9-.7-14.8-.1-3.7.5-8 1.2-10.8 3.8-.5.5.3 1.3.8.8 2.9-2.7 7.8-3.2 11.6-3.6 4.3-.4 9.2-.1 13.5.6.6.1.4-1.4-.3-1.5z"/><path class="st0" d="M196.3 442.4c-1.5 2.5 3.1 4.8 5.1 6 5 3 10.8 5.4 16.1 7.7 11.2 4.9 24.3 9.5 36.7 9.3.7 0 4-.6 3.3-.6-12 .3-27.6-5.2-38.4-9.9-5-2.2-10-4.6-14.7-7.4-2-1.2-9.8-4.6-5.3-6.5.7-.3-3.5.6-3.3 1.3l.5.1z"/><path class="st0" d="M196.1 441.7c-7.8 5.8 20.3 23.4 23.5 25 16.1 8.1 33.6 10.8 51.4 7.3 7.3-1.4 11.8-3.3 16.4-6.5 2.5-1.7 6.1-3.9 6.3-7.3.1-.7-1.2-3.5-1.2-2.8-.4 4.2-5.4 7.9-8.1 9.1-3.7 1.8-7.5 3.4-11.4 4.6-7.5 2.2-15.4 2.9-23.2 2.4-15.8-1.2-31-7.6-43.3-17.5-2.1-1.7-11.3-9.8-8.8-13.3.4-.6-1-1.5-1.6-1zm27.8-9.6c-6.4-2-13.8-2.9-20.4-2-4.8.6-12.2 1.8-15 6.8-.4.6.8 1.3 1 .6 1.3-4 10.2-5.8 14.8-6.3 6.4-.7 13.3.2 19.4 2 .6.2.9-.9.2-1.1z"/><path class="st0" d="M188.3 437.3c.4 1.3 1.9 1.5 3.1 1.7 2.9.5 4.9.5 7.8 1.4.7.2 3.9-.9 3.2-1.1-1.9-.6-5.4-.8-7.9-1-.9-.1-5.2-.3-4.3-2.5.3-.8-2.1.8-1.9 1.5z"/><path class="st0" d="M188.3 437c-.7 1.6.7 2.4 1.8 3 1.5.9 3.7 1.5 5.2 2.9.5.5 1.4 0 1-.6-.8-1.3-2.2-2-3.5-2.6-.9-.5-3.4-1.3-3.3-2.6.1-.7-1.1-.7-1.1 0l-.1-.1zm45.8 55.3c-.5 1 .2 2.4.9 3.1.5.5 3.4-.4 2.6-.6-1.8-.5-2.1-1.2-1.4-2 .5-.6-1.9-1.2-1.8-.5h-.3zm91.1-49.9c15-.2 30.8-1.8 45-7.1 5.8-2.1 11.6-4.3 17.5-6.1 2.5-.8 4.5-1.5 7.2-1.8 1.2-.1 3-.1 4.2-.1 1.2 0 5.6-1 4.3 1.1-.4.6 1 1.5 1.4.9 3.8-5.7-5.4-3.9-7.4-3.8-4.3.1-9.4 1.9-13.5 3.2-5 1.6-10.2 4.1-15.1 5.9-4.9 1.8-9.9 2.9-14.9 3.8-9.4 1.7-19 2.6-28.6 2.8-.8.1-.8 1.2-.1 1.2z"/><path class="st0" d="M404.2 427.7c1.4 2.6-5.9 13.1-7.2 14.7-3.4 4.2-7.1 7.4-11.8 10-14.3 8.2-31.8 9-48 6.8-.7-.1.5 2.3 1.3 2.4 14.5 1.9 28.5 1.2 41.9-4.8 4.3-1.9 8.9-4.3 12.4-7.4 3.9-3.4 8.2-8.4 11-12.8 1.2-2 4.4-8.4 1.4-10.5-.7-.3-1.6 1.2-1 1.6zm-121.9 10.6c4.7 2.6 9.9 3.9 15.3 2.7.7-.2.4-1.3-.3-1.1-5 1.2-10-.1-14.4-2.6-.7-.3-1.3.7-.6 1z"/></svg>