<svg xmlns="http://www.w3.org/2000/svg" width="298.314" height="298.313"><path fill="#fff" d="M172.708 156.999c-8.681 0-15.701 7.029-15.701 15.709 0 8.664 7.037 15.701 15.701 15.701 8.664 0 15.701-7.037 15.701-15.701.001-8.68-7.021-15.709-15.701-15.709zm-47.103-15.693c8.668 0 15.701-7.033 15.701-15.701 0-8.674-7.033-15.699-15.701-15.699-8.666 0-15.699 7.025-15.699 15.699 0 8.668 7.033 15.701 15.699 15.701zm47.103-31.4c-8.681 0-15.701 7.025-15.701 15.699 0 8.668 7.021 15.701 15.701 15.701 8.664 0 15.701-7.033 15.701-15.701.001-8.674-7.021-15.699-15.701-15.699zM188.41 31.4h-78.504v31.402h78.504V31.4zm31.402 109.906c8.66 0 15.701-7.033 15.701-15.701 0-8.674-7.025-15.699-15.701-15.699-8.681 0-15.701 7.025-15.701 15.699 0 8.668 7.037 15.701 15.701 15.701zm0 47.103c8.66 0 15.701-7.037 15.701-15.701 0-8.68-7.025-15.701-15.701-15.701-8.681 0-15.701 7.021-15.701 15.701 0 8.664 7.037 15.701 15.701 15.701zm-94.207 0c8.668 0 15.701-7.037 15.701-15.701 0-8.68-7.025-15.709-15.701-15.709-8.674 0-15.699 7.029-15.699 15.709 0 8.664 7.033 15.701 15.699 15.701zm-47.101 47.104c8.666 0 15.701-7.041 15.701-15.701 0-8.68-7.035-15.701-15.701-15.701-8.674 0-15.701 7.021-15.701 15.701 0 8.66 7.034 15.701 15.701 15.701zM266.911 31.4h-15.696v31.402h15.696V266.91H31.402V62.803h15.699V31.4H31.402C14.06 31.4 0 45.455 0 62.803v204.101c0 17.352 14.06 31.41 31.402 31.41H266.91c17.345 0 31.402-14.059 31.402-31.41V62.803c.001-17.348-14.057-31.403-31.401-31.403zM78.504 188.409c8.666 0 15.701-7.037 15.701-15.701 0-8.68-7.035-15.709-15.701-15.709-8.674 0-15.701 7.029-15.701 15.709 0 8.664 7.034 15.701 15.701 15.701zm0-47.103c8.666 0 15.701-7.033 15.701-15.701 0-8.674-7.035-15.699-15.701-15.699-8.674 0-15.701 7.025-15.701 15.699 0 8.668 7.034 15.701 15.701 15.701zm47.101 94.207c8.668 0 15.701-7.041 15.701-15.701 0-8.68-7.033-15.701-15.701-15.701-8.666 0-15.699 7.021-15.699 15.701 0 8.66 7.033 15.701 15.699 15.701zM78.504 62.803c8.666 0 15.701-7.033 15.701-15.701v-31.4C94.205 7.025 87.178 0 78.504 0c-8.667 0-15.701 7.025-15.701 15.701v31.4c0 8.669 7.034 15.702 15.701 15.702zm141.308 0c8.66 0 15.701-7.033 15.701-15.701v-31.4C235.513 7.025 228.472 0 219.812 0c-8.681 0-15.701 7.025-15.701 15.701v31.4c0 8.669 7.037 15.702 15.701 15.702z"/></svg>